<?xml version="1.0" encoding="UTF-8"?>
<svg width="192px" height="192px" viewBox="0 0 192 192" version="1.1" xmlns="http://www.w3.org/2000/svg" xmlns:xlink="http://www.w3.org/1999/xlink">
    <!-- Generator: Sketch 53.2 (72643) - https://sketchapp.com -->
    <title>xxxhdpi/ic_launcher_APPicon</title>
    <desc>Created with Sketch.</desc>
    <defs>
        <circle id="path-1" cx="73" cy="73" r="73"></circle>
    </defs>
    <g id="xxxhdpi/ic_launcher_APP" stroke="none" stroke-width="1" fill="none" fill-rule="evenodd">
        <g id="Group-3" transform="translate(23.000000, 23.000000)">
            <g id="Group-2">
                <mask id="mask-2" fill="white">
                    <use xlink:href="#path-1"></use>
                </mask>
                <use id="Oval" stroke="#0066B2" stroke-width="20" fill="#D8D8D8" xlink:href="#path-1"></use>
                <g id="FC_Bayern_München_logo_(2017)" mask="url(#mask-2)">
                    <g transform="translate(-60.142045, -60.556818)">
                        <g id="Ringe">
                            <path d="M132.727273,0 C59.4112554,0 0,59.4112554 0,132.727273 C0,205.996473 59.4112554,265.407728 132.727273,265.407728 C206.04329,265.407728 265.454545,205.996473 265.454545,132.680455 C265.407728,59.4112554 205.996473,0 132.727273,0 Z" id="Path" fill="#0066B2" fill-rule="nonzero"></path>
                            <path d="M132.727273,6.64806798 C63.1098284,6.64806798 6.64806798,63.1098284 6.64806798,132.727273 C6.64806798,202.344717 63.1098284,258.806477 132.727273,258.806477 C202.344717,258.806477 258.806477,202.344717 258.806477,132.727273 C258.806477,63.0630111 202.344717,6.64806798 132.727273,6.64806798 Z" id="Path" fill="#FFFFFF" fill-rule="nonzero"></path>
                            <path d="M132.727273,12.5938753 C66.3870451,12.5938753 12.6406926,66.3870451 12.6406926,132.680455 C12.5938753,199.020683 66.3870451,252.813853 132.727273,252.813853 C199.020683,252.813853 252.813853,199.020683 252.813853,132.727273 C252.813853,66.3870451 199.020683,12.5938753 132.727273,12.5938753 Z M132.727273,207.681898 C91.2938913,207.681898 57.7258297,174.113837 57.7258297,132.680455 C57.7258297,91.2470739 91.2938913,57.6790123 132.727273,57.6790123 C174.160654,57.6790123 207.728716,91.2470739 207.728716,132.680455 C207.681898,174.113837 174.113837,207.681898 132.727273,207.681898 Z" id="Shape" fill="#DC052D" fill-rule="nonzero"></path>
                        </g>
                        <g id="Rapport" transform="translate(63.875000, 63.875000)">
                            <path d="M3.13694723,89.426406 C6.27389445,99.5863694 11.5645666,108.52901 18.3534823,115.832947 L18.3534823,84.7443952 L0.749121726,59.040156 C-0.702301618,68.9191988 -0.0468201079,79.2664426 3.13694723,89.426406 L3.13694723,89.426406 Z M38.626589,114.100603 L38.626589,78.4705008 L18.4939426,49.067473 L18.4939426,22.0990909 C14.748334,26.1256202 11.5645666,30.5735304 8.89582049,35.3023613 L18.3534823,49.1142931 L18.3534823,84.7443952 L38.4861287,114.147423 L38.4861287,130.909022 C43.3554199,133.343667 48.5524518,135.169651 53.8899441,136.386974 L38.626589,114.100603 Z M58.8996957,72.1966063 L79.0323421,101.599634 L79.0323421,137.229736 L58.8996957,107.826708 L58.8996957,72.1966063 L38.7670493,42.7935786 L38.7670493,7.1634765 L58.8996957,36.5665042 L58.8996957,72.1966063 Z M79.1728024,65.9227119 L59.040156,36.5196841 L59.040156,0.889582049 L79.1728024,30.2926098 L79.1728024,65.9227119 L99.3054488,95.3257396 L99.3054488,130.955842 L79.1728024,101.552814 L79.1728024,65.9227119 Z M48.6460921,3.13694723 C38.3456683,6.32071456 29.3562076,11.705027 22.0054507,18.5407627 L38.626589,42.8403987 L38.626589,78.4705008 L58.7592354,107.873529 L58.7592354,137.323376 C68.7319183,138.82162 79.1728024,138.166138 89.4732261,134.982371 C99.7736498,131.798604 108.763111,126.414291 116.113867,119.578555 L99.4927292,95.2789195 L99.4927292,59.6488174 L79.3600828,30.2457897 L79.3600828,0.795941834 C69.3873998,-0.702301618 58.8996957,-0.0468201079 48.6460921,3.13694723 L48.6460921,3.13694723 Z M119.765836,89.005025 L119.765836,53.374923 L99.6331895,23.9718952 L99.6331895,7.21029661 C94.7638983,4.775651 89.5668663,2.9496668 84.229374,1.73234399 L99.4459091,23.9718952 L99.4459091,59.6019973 L119.578555,89.005025 L119.578555,115.973407 C123.324164,111.946878 126.507931,107.498968 129.176678,102.770137 L119.765836,89.005025 Z M134.982371,48.6460921 C131.845424,38.4861287 126.554752,29.5434881 119.765836,22.2395512 L119.765836,53.374923 L137.370196,79.0791622 C138.7748,69.1532993 138.119318,58.8060555 134.982371,48.6460921 L134.982371,48.6460921 Z" id="Shape" fill="#0066B2" fill-rule="nonzero"></path>
                        </g>
                        <g id="Schrift" transform="translate(23.642045, 20.323864)">
                            <g id="Group" transform="translate(1.873167, 137.128329)" fill="#FFFFFF" fill-rule="nonzero">
                                <path d="M26.692632,0.234007388 L30.111162,7.4882364 L24.5853189,17.9717674 C23.7423937,19.5162161 23.039956,20.8266575 23.039956,20.8266575 L23.1336144,20.9670619 C23.1336144,20.9670619 24.5853189,21.0606649 26.3648277,21.2010693 L38.1657808,22.2775033 L42.3804069,29.0637175 L16.8585044,43.9465874 L12.7843658,37.3943805 L23.4614186,31.169784 C25.9433651,29.7189382 27.8165323,28.6893057 27.8165323,28.6893057 L27.7228739,28.5489013 C27.7228739,28.5489013 26.4116569,28.4552983 23.7423937,28.034085 L12.8780242,26.3960333 L12.7843658,26.2556289 L17.3736254,16.2869142 C18.4975257,13.8064359 19.1531342,12.6832004 19.1531342,12.6832004 L19.0594758,12.542796 C19.0594758,12.542796 17.1863087,13.5724285 14.6107038,14.8828698 L3.5590176,20.4522457 L0.280975073,13.4788255 L26.692632,0.234007388 Z" id="Path"></path>
                                <path d="M46.2203996,32.3866224 L52.1208761,37.6283879 L40.319923,51.6688312 C38.3999267,54.008905 38.493585,56.4425819 41.3969941,58.7826558 C44.3472324,61.0759281 46.7355205,60.6079134 48.5618585,58.1742365 L59.4730572,43.3849696 L65.9354839,47.8779115 L54.7433101,62.9947887 C49.6389296,69.9214074 42.9891862,68.5641645 37.2291972,64.0712227 C31.4692082,59.5314794 28.6126283,53.4004858 34.1384714,46.8014775 L46.2203996,32.3866224 Z M57.9745235,41.9809253 L50.7160007,47.0354849 L50.5755132,46.9418819 L53.8067265,38.7048219 L57.9745235,41.9809253 Z" id="Shape"></path>
                                <path d="M70.431085,50.4519928 L78.1110704,53.2600814 L82.466184,68.0961498 C83.4027676,71.2786502 83.777401,73.0103049 83.777401,73.0103049 L84.0115469,73.0571064 C84.0115469,73.0571064 84.5266679,70.8574369 85.2291056,68.1429513 L88.3666606,56.3489789 L95.8593292,58.1274351 L88.226173,86.6763363 L80.2652126,84.7574758 L75.3481488,69.2661867 C74.4115652,66.2708922 73.9901026,64.3520316 73.9901026,64.3520316 L73.7559567,64.3052301 C73.7559567,64.3052301 73.1003482,66.645304 72.257423,69.1257823 L68.2301136,81.153762 L61.0184201,78.4860778 L70.431085,50.4519928 Z" id="Path"></path>
                                <path d="M127.937317,76.0055995 C128.077804,83.0258211 123.722691,87.7995718 115.340268,88.407991 C107.519795,88.9228073 100.167614,85.365895 99.746151,73.9463345 C99.3246884,62.3863695 105.740286,58.0338321 113.232955,57.5190159 C121.381232,56.9573981 126.110979,61.4971414 126.907075,67.6749365 L118.992944,68.1897527 C118.243677,65.5220685 116.838801,63.9308183 113.326613,64.1648257 C110.04857,64.3988331 107.80077,67.3941276 108.034916,73.3379153 C108.315891,79.5625118 110.891496,81.9493871 114.544172,81.7153797 C118.196848,81.4813723 119.78904,79.7029162 119.976356,76.5204157 L127.937317,76.0055995 Z" id="Path"></path>
                                <polygon id="Path" points="129.716826 55.6001553 137.069007 52.7920666 141.236804 62.7607813 150.415323 58.5954498 145.638746 48.907544 152.569465 45.2102273 165.681635 71.6998635 158.750916 75.3971803 153.552878 64.8668478 143.952896 69.2193852 148.448497 80.0305265 141.096316 82.8386152"></polygon>
                                <polygon id="Path" points="157.158724 41.7469179 171.301136 28.2212909 175.843567 32.6674313 166.992852 41.1384987 170.364553 44.8826169 178.934293 36.6455569 183.383065 40.9980943 174.53235 49.4691617 178.231855 53.5876917 188.20647 44.0401903 192.7489 48.4863307 176.920638 63.6500094"></polygon>
                                <path d="M174.860154,24.009158 L178.934293,16.8953334 L194.294263,15.1168772 C197.619135,14.7424654 199.351815,14.6488625 199.351815,14.6488625 L199.445473,14.4616565 C199.445473,14.4616565 197.33816,13.5724285 194.809384,12.4023915 L183.710869,7.30103049 L186.707936,0.18720591 L213.541056,12.542796 L210.309842,20.0310324 L194.200605,22.2775033 C191.06305,22.6987166 189.143054,22.7923195 189.143054,22.7923195 L189.049395,22.9795255 C189.049395,22.9795255 191.203537,24.009158 193.544996,25.2727979 L204.690341,31.263387 L200.850348,37.9559983 L174.860154,24.009158 Z" id="Path"></path>
                            </g>
                            <g id="Group" fill="#FFFFFF" fill-rule="nonzero">
                                <polygon id="Path" points="7.67998534 63.3223991 13.6272911 65.6624729 8.89754399 78.7668866 14.4233871 80.5921443 18.8721591 68.3301572 24.6321481 70.6234296 20.3238636 82.5110048 30.6731122 85.8807112 28.4253116 93.4157491 0.140487537 84.2426595"></polygon>
                                <path d="M43.9257698,43.8529844 C49.0301503,48.4863307 49.9199047,54.8045302 44.8155242,61.2631341 C40.1326063,67.1601202 32.9677419,70.0150104 23.6487353,63.0883917 C14.4702163,56.3021774 15.6877749,48.2523233 20.5580095,42.0745283 C25.7092192,35.5691229 32.3121334,35.0075052 37.4165139,38.6580204 L32.4994501,44.8826169 C30.111162,43.5253741 27.8633614,43.6657785 25.6155609,46.5206686 C23.3677603,49.3755588 23.8828812,52.8856696 28.8467742,56.5829863 C33.6233504,60.1398986 37.3228556,59.9994942 39.3833394,57.3786114 C41.5843109,54.5705228 41.1628482,52.3240519 39.008706,50.0775809 L43.9257698,43.8529844 Z" id="Path"></path>
                                <path d="M63.3130499,10.4367295 C68.5579179,8.00305265 73.6622984,7.4882364 75.910099,12.8236048 C77.736437,17.1761422 76.5657075,19.0950028 74.3179069,21.0138634 L74.4115652,21.2010693 C76.8466826,20.6394516 80.1247251,20.7330545 82.1852089,25.6004082 C84.6671554,31.4505929 80.8739919,34.8671007 75.6291239,37.2539761 L64.5774377,42.3553371 L51.3247801,15.9593038 L63.3130499,10.4367295 Z M67.7618218,21.1074664 C69.8223057,20.1714368 70.3842559,19.1886058 69.5881598,17.2229437 C68.7920638,15.3040831 67.4340176,15.1636787 65.4671921,16.0997083 L61.0652493,18.1589733 L63.5471957,23.0731284 L67.7618218,21.1074664 Z M72.772544,31.9186077 C75.0203446,30.8889752 75.6291239,29.9997471 74.6925403,27.7532762 C73.8027859,25.6472097 72.257423,25.6004082 69.9627933,26.6300407 L66.1696298,28.4084968 L68.838893,33.6970638 L72.772544,31.9186077 Z" id="Shape"></path>
                                <path d="M117.119776,29.8125412 L108.737353,29.8125412 L106.302236,24.5239742 L96.1403043,25.4132023 L94.6885997,31.0293796 L86.4466642,32.4802254 L94.6417705,1.59125024 L103.77346,0.795625118 L117.119776,29.8125412 Z M104.007606,18.814194 L101.478831,13.0576122 C100.589076,11.0919502 99.9334677,9.3602955 99.9334677,9.3602955 L99.7929802,9.3602955 C99.7929802,9.3602955 99.465176,11.1855531 98.9032258,13.2448181 L97.4046921,19.3290102 L104.007606,18.814194 Z" id="Shape"></path>
                                <path d="M124.565616,21.1542678 L117.681727,0.18720591 L126.532441,1.8720591 L129.201705,10.7643398 C129.716826,12.449193 130.138288,14.2744506 130.138288,14.2744506 L130.278776,14.3212521 C130.278776,14.3212521 131.449505,12.8704063 132.573405,11.5131635 L138.708028,4.53974332 L147.465084,6.69261128 L132.526576,22.932724 L130.231946,32.7142328 L122.505132,31.0293796 L124.565616,21.1542678 Z" id="Path"></path>
                                <polygon id="Path" points="153.459219 9.21989107 172.050403 19.4226132 168.81919 24.898386 157.346041 18.626988 155.051411 23.1199299 165.634806 28.9233131 162.450422 34.2586815 152.194831 28.6425042 149.666056 33.5566594 160.858229 39.6876529 157.627016 45.1634258 140.066074 35.5223214"></polygon>
                                <path d="M182.352823,27.4256658 L191.390854,37.0667702 C196.026943,42.0277268 197.104014,46.754676 191.625,51.5752282 C188.112812,54.6641257 185.537207,55.5065523 182.446481,54.2897139 L177.716734,66.1772892 L172.144062,59.3442735 L176.452346,49.6095662 L173.876741,46.848279 L166.899194,53.8216991 L161.186034,48.3927277 L182.352823,27.4256658 Z M178.278684,42.5425431 L181.322581,45.8186465 C183.008431,47.6439041 184.460136,47.6907056 186.333303,46.0058524 C188.20647,44.3678007 188.159641,42.7765504 186.47379,40.9980943 L183.242577,37.5815864 L178.278684,42.5425431 Z" id="Shape"></path>
                                <path d="M189.798662,93.4157491 L187.08257,85.6935053 L195.792797,72.9635034 C197.665964,70.2490177 198.743035,68.8449734 198.743035,68.8449734 L198.649377,68.610966 C198.649377,68.610966 196.635722,69.6405985 194.060117,70.763834 L182.914773,75.8183936 L179.543072,68.8917749 L206.46985,56.7233907 L210.028867,64.0712227 L201.224982,77.6904527 C199.539131,80.2645339 198.274743,81.8557842 198.274743,81.8557842 L198.368402,82.0897915 C198.368402,82.0897915 200.569373,81.153762 203.05132,80.170931 L214.899102,75.6779891 L217.427878,82.9790196 L189.798662,93.4157491 Z" id="Path"></path>
                            </g>
                        </g>
                    </g>
                </g>
            </g>
            <g id="big-pretzel-svgrepo-com" transform="translate(70.338068, 74.133523) rotate(90.000000) translate(-70.338068, -74.133523) translate(30.838068, 45.133523)" stroke-linecap="round">
                <g id="Path-+-Path-+-Path-+-Path-+-Path-+-Path-+-Path-+-Path-+-Path-+-Path-+-Path-+-Path-Mask" transform="translate(0.207386, 0.207386)">
                    <g id="Pretzel_Icon_clip_art" transform="translate(0.227121, 0.195228)">
                        <path d="M64.0932759,44.414137 C59.1345551,32.6665378 29.2056605,-5.90133632 11.2068289,1.19259984 C1.25824514,5.11366584 -1.2870094,22.1863737 1.21324737,31.709284 C5.35366028,47.479169 21.7111987,55.5095475 38.8099825,55.3091512 C61.0321687,55.0514397 71.4525021,44.4697108 75.524489,30.7914894 C78.2549514,21.6195708 74.9104067,4.67099508 65.1316728,1.00601498 C48.3427243,-5.28632902 20.8436587,27.5312998 16.7542651,44.1304159" id="path3282" stroke="#6E0909" stroke-width="26"></path>
                        <path d="M64.0932759,44.414137 C59.1345551,32.6665378 29.2056605,-5.90133632 11.2068289,1.19259984 C1.25824514,5.11366584 -1.2870094,22.1863737 1.21324737,31.709284 C5.35366028,47.479169 21.7111987,55.5095475 38.8099825,55.3091512 C61.0321687,55.0514397 71.4525021,44.4697108 75.524489,30.7914894 C78.2549514,21.6195708 74.9104067,4.85505909 65.1316728,1.19007899 C48.3427243,-5.10226577 20.8436587,27.5312998 16.7542651,44.1304159" id="path3298" stroke="#FFCB00" stroke-width="11.7627792"></path>
                    </g>
                </g>
            </g>
        </g>
    </g>
</svg>